<svg width="56" height="55" viewBox="0 0 56 55" fill="none" xmlns="http://www.w3.org/2000/svg">
<path d="M28.0504 0.594961L28.0655 0.600994L28.081 0.606035L53.425 8.87985C54.1243 9.16537 54.5779 9.77854 54.5779 10.5014V43.705C54.5779 44.464 54.0931 45.1255 53.4527 45.3177L53.4527 45.3175L53.4397 45.3218L28.0795 53.688L28.078 53.6885C27.8994 53.7481 27.7958 53.75 27.539 53.75C27.2821 53.75 27.1785 53.7481 26.9999 53.6885L26.9969 53.6875L1.65295 45.4137C0.95361 45.1282 0.5 44.515 0.5 43.7922V10.5014C0.5 9.74245 0.984773 9.08088 1.6252 8.88875L1.62524 8.88889L1.6367 8.88515L26.9969 0.606045L26.9999 0.605065C27.4312 0.461305 27.7431 0.47202 28.0504 0.594961ZM25.2045 49.5834L25.2804 49.6082H25.3602H25.4474H25.9474V49.1082V20.3492V19.9852L25.601 19.8734L17.2348 17.1718L16.5811 16.9607V17.6476V32.4629C16.5811 33.4068 15.8463 34.1416 14.9024 34.1416C13.9585 34.1416 13.2237 33.4068 13.2237 32.4629V16.1661V15.8021L12.8773 15.6903L4.51108 12.9886L3.85743 12.7776V13.4645V42.2235V42.5858L4.20168 42.6986L25.2045 49.5834ZM27.385 16.9904L27.5398 17.0404L27.6944 16.9899L46.0827 10.9766L47.536 10.5014L46.0827 10.0262L27.6944 4.01292L27.539 3.9621L27.3835 4.01292L8.99519 10.0262L7.54492 10.5004L8.99462 10.9765L14.8336 12.8937L14.9981 12.9477L15.1608 12.8884L24.473 9.49426C25.3727 9.22344 26.3044 9.64308 26.6365 10.5066C26.9631 11.3557 26.5185 12.2989 25.6224 12.6469L21.4459 14.1261L20.0547 14.6188L21.4589 15.0731L27.385 16.9904ZM50.8741 42.6993L51.2205 42.5875V42.2235V13.4645V12.7744L50.5647 12.9893L29.5619 19.8741L29.2177 19.9869V20.3492V49.1082V49.7951L29.8713 49.584L38.2376 46.8824L38.5839 46.7706V46.4066V35.5131C38.5839 34.5418 39.2581 33.8343 40.1755 33.8343C41.1194 33.8343 41.8542 34.5691 41.8542 35.5131V44.9251V45.612L42.5079 45.4009L50.8741 42.6993Z" fill="#0F2421" stroke="white"/>
</svg>
